<svg xmlns="http://www.w3.org/2000/svg" viewBox="0 0 900 402" width="900" height="402"><rect width="900" height="402" fill="#122140"/><circle cx="450.0" cy="130.0" r="64.0" fill="none" stroke="#C8A24C" stroke-width="2.4"/><path transform="translate(426.13,164.10) scale(0.08600,-0.08600)" d="M265.2005615234375 719.6000366210938Q318.20074462890625 719.6000366210938 346.20086669921875 707.8000183105469Q374.20098876953125 696 395.2010498046875 682Q407.2010498046875 675 414.7010498046875 671.5Q422.2010498046875 668 429.2010498046875 668Q439.2010498046875 668 443.7010498046875 679.0Q448.2010498046875 690 451.2010498046875 712H474.2010498046875Q473.2010498046875 694.199951171875 471.7010498046875 669.7998962402344Q470.2010498046875 645.3998413085938 469.7010498046875 605.3997497558594Q469.2010498046875 565.399658203125 469.2010498046875 499.99951171875H446.2010498046875Q443.00103759765625 549.3995971679688 424.3009948730469 594.9996948242188Q405.6009521484375 640.5997924804688 370.50091552734375 669.7998657226562Q335.40087890625 698.9999389648438 280.200927734375 698.9999389648438Q229.00103759765625 698.9999389648438 195.60110473632812 668.6000366210938Q162.201171875 638.2001342773438 162.201171875 587.6002197265625Q162.201171875 544.2003173828125 184.20111083984375 514.5003662109375Q206.2010498046875 484.8004150390625 244.7010498046875 459.4003601074219Q283.2010498046875 434.00030517578125 331.80126953125 402.80010986328125Q382.40118408203125 371.0001220703125 422.10113525390625 339.6001281738281Q461.80108642578125 308.20013427734375 485.0010681152344 270.0001220703125Q508.2010498046875 231.80010986328125 508.2010498046875 177.60009765625Q508.2010498046875 113.00006103515625 477.5009460449219 70.60003662109375Q446.80084228515625 28.20001220703125 396.00067138671875 7.100006103515625Q345.20050048828125 -14 284.2003173828125 -14Q228.20013427734375 -14 195.30001831054688 -2.0Q162.39990234375 10 139.1998291015625 23Q117.1998291015625 37 105.1998291015625 37Q95.1998291015625 37 90.6998291015625 26.0Q86.1998291015625 15 83.1998291015625 -7H60.1998291015625Q62.1998291015625 15.00006103515625 62.6998291015625 44.70013427734375Q63.1998291015625 74.40020751953125 63.6998291015625 122.2003173828125Q64.1998291015625 170.00042724609375 64.1998291015625 243.0006103515625H87.1998291015625Q91.1998291015625 181.00048828125 109.6998291015625 127.20037841796875Q128.1998291015625 73.4002685546875 166.6998291015625 40.7001953125Q205.1998291015625 8.0001220703125 269.1998291015625 8.0001220703125Q302.9998779296875 8.0001220703125 331.89984130859375 21.10009765625Q360.7998046875 34.2000732421875 378.999755859375 62.199981689453125Q397.19970703125 90.19989013671875 397.19970703125 133.99969482421875Q397.19970703125 175.19970703125 377.7997131347656 205.89971923828125Q358.39971923828125 236.5997314453125 323.8997497558594 263.29974365234375Q289.3997802734375 289.999755859375 243.1998291015625 317.999755859375Q196.1998291015625 347.59979248046875 155.1998291015625 377.99981689453125Q114.1998291015625 408.39984130859375 89.6998291015625 447.9998474121094Q65.1998291015625 487.599853515625 65.1998291015625 543.3998413085938Q65.1998291015625 603.7999267578125 93.39993286132812 642.8999633789062Q121.60003662109375 682 167.40020751953125 700.8000183105469Q213.20037841796875 719.6000366210938 265.2005615234375 719.6000366210938Z" fill="#C8A24C"/><path transform="translate(184.20,286.00) scale(0.09200,-0.09200)" d="M265.2005615234375 719.6000366210938Q318.20074462890625 719.6000366210938 346.20086669921875 707.8000183105469Q374.20098876953125 696 395.2010498046875 682Q407.2010498046875 675 414.7010498046875 671.5Q422.2010498046875 668 429.2010498046875 668Q439.2010498046875 668 443.7010498046875 679.0Q448.2010498046875 690 451.2010498046875 712H474.2010498046875Q473.2010498046875 694.199951171875 471.7010498046875 669.7998962402344Q470.2010498046875 645.3998413085938 469.7010498046875 605.3997497558594Q469.2010498046875 565.399658203125 469.2010498046875 499.99951171875H446.2010498046875Q443.00103759765625 549.3995971679688 424.3009948730469 594.9996948242188Q405.6009521484375 640.5997924804688 370.50091552734375 669.7998657226562Q335.40087890625 698.9999389648438 280.200927734375 698.9999389648438Q229.00103759765625 698.9999389648438 195.60110473632812 668.6000366210938Q162.201171875 638.2001342773438 162.201171875 587.6002197265625Q162.201171875 544.2003173828125 184.20111083984375 514.5003662109375Q206.2010498046875 484.8004150390625 244.7010498046875 459.4003601074219Q283.2010498046875 434.00030517578125 331.80126953125 402.80010986328125Q382.40118408203125 371.0001220703125 422.10113525390625 339.6001281738281Q461.80108642578125 308.20013427734375 485.0010681152344 270.0001220703125Q508.2010498046875 231.80010986328125 508.2010498046875 177.60009765625Q508.2010498046875 113.00006103515625 477.5009460449219 70.60003662109375Q446.80084228515625 28.20001220703125 396.00067138671875 7.100006103515625Q345.20050048828125 -14 284.2003173828125 -14Q228.20013427734375 -14 195.30001831054688 -2.0Q162.39990234375 10 139.1998291015625 23Q117.1998291015625 37 105.1998291015625 37Q95.1998291015625 37 90.6998291015625 26.0Q86.1998291015625 15 83.1998291015625 -7H60.1998291015625Q62.1998291015625 15.00006103515625 62.6998291015625 44.70013427734375Q63.1998291015625 74.40020751953125 63.6998291015625 122.2003173828125Q64.1998291015625 170.00042724609375 64.1998291015625 243.0006103515625H87.1998291015625Q91.1998291015625 181.00048828125 109.6998291015625 127.20037841796875Q128.1998291015625 73.4002685546875 166.6998291015625 40.7001953125Q205.1998291015625 8.0001220703125 269.1998291015625 8.0001220703125Q302.9998779296875 8.0001220703125 331.89984130859375 21.10009765625Q360.7998046875 34.2000732421875 378.999755859375 62.199981689453125Q397.19970703125 90.19989013671875 397.19970703125 133.99969482421875Q397.19970703125 175.19970703125 377.7997131347656 205.89971923828125Q358.39971923828125 236.5997314453125 323.8997497558594 263.29974365234375Q289.3997802734375 289.999755859375 243.1998291015625 317.999755859375Q196.1998291015625 347.59979248046875 155.1998291015625 377.99981689453125Q114.1998291015625 408.39984130859375 89.6998291015625 447.9998474121094Q65.1998291015625 487.599853515625 65.1998291015625 543.3998413085938Q65.1998291015625 603.7999267578125 93.39993286132812 642.8999633789062Q121.60003662109375 682 167.40020751953125 700.8000183105469Q213.20037841796875 719.6000366210938 265.2005615234375 719.6000366210938Z" fill="#F5EFE2"/><path transform="translate(255.26,286.00) scale(0.09200,-0.09200)" d="M379.611316927903 722Q478.19966542635035 722 552.4003698225501 679.0Q626.60107421875 636 667.6011657714844 555.5Q708.6012573242188 475 708.6012573242188 360Q708.6012573242188 248 666.5714877011965 164.0Q624.5417180781742 80 549.8221276372457 33.0Q475.10253719631714 -14 378.5897328767845 -14Q280.00138437833715 -14 205.80067998213732 29.0Q131.5999755859375 72 90.59988403320312 153.0Q49.59979248046875 234 49.59979248046875 348Q49.59979248046875 460 92.1484481482197 544.0Q134.69710381597065 628 208.8978082121705 675.0Q283.09851260837036 722 379.611316927903 722ZM375.5296544352854 704Q313.6007080078125 704 267.80084228515625 659.0Q222.0009765625 614 196.80105590820312 535.0Q171.60113525390625 456 171.60113525390625 352Q171.60113525390625 246 199.75733596242534 167.5Q227.91353667094444 89 276.11313449400257 46.5Q324.3127323170607 4 382.53402869738835 4Q444.57311500429483 4 490.38659412324114 49.0Q536.2000732421875 94 561.3999938964844 173.5Q586.5999145507812 253 586.5999145507812 356Q586.5999145507812 463 558.3987359580753 541.0Q530.1975573653694 619 482.3989495811222 661.5Q434.600341796875 704 375.5296544352854 704Z" fill="#F5EFE2"/><path transform="translate(344.99,286.00) scale(0.09200,-0.09200)" d="M314.2010498046875 708V688Q280.2010498046875 687 262.7010498046875 680.5Q245.2010498046875 674 239.2010498046875 656.5Q233.2010498046875 639 233.2010498046875 602V101.999755859375Q233.2010498046875 67.79986572265625 238.801025390625 50.699920654296875Q244.4010009765625 33.5999755859375 260.6009216308594 28.29998779296875Q276.80084228515625 23 308.20068359375 23H373.2001953125Q415.99993896484375 23 445.5999450683594 35.0001220703125Q475.199951171875 47.000244140625 494.90008544921875 71.20040893554688Q514.6002197265625 95.40057373046875 526.0003662109375 133.10067749023438Q537.4005126953125 170.80078125 543.2005615234375 222.000732421875H566.2005615234375Q563.2005615234375 190.00067138671875 563.2005615234375 138.0006103515625Q563.2005615234375 117.60052490234375 564.6005554199219 79.30035400390625Q566.0005493164062 41.00018310546875 570.2005615234375 0Q519.2005615234375 2 455.2005615234375 2.5Q391.2005615234375 3 341.2005615234375 3Q318.20050048828125 3 282.3004150390625 3.0Q246.40032958984375 3 204.70022583007812 2.5Q163.0001220703125 2 120.30001831054688 1.5Q77.59991455078125 1 39.1998291015625 0V20Q72.59979248046875 22 89.59976196289062 28.0Q106.5997314453125 34 112.39971923828125 52.0Q118.19970703125 70 118.19970703125 106V602Q118.19970703125 639 112.39971923828125 656.5Q106.5997314453125 674 89.499755859375 680.5Q72.3997802734375 687 39.1998291015625 688V708Q61.7999267578125 707 98.50009155273438 706.0Q135.20025634765625 705 177.200439453125 705Q215.20062255859375 705 252.40078735351562 706.0Q289.6009521484375 707 314.2010498046875 708Z" fill="#F5EFE2"/><path transform="translate(419.82,286.00) scale(0.09200,-0.09200)" d="M650.600830078125 708V688Q630.80078125 682.5999145507812 608.2007141113281 660.8997497558594Q585.6006469726562 639.1995849609375 567.4005737304688 590.3993530273438L340.40106201171875 -3.99993896484375Q336.40093994140625 -3.7999267578125 332.1007995605469 -3.699920654296875Q327.8006591796875 -3.59991455078125 323.4005126953125 -3.59991455078125Q319.20037841796875 -3.59991455078125 314.9002380371094 -3.699920654296875Q310.60009765625 -3.7999267578125 306.5999755859375 -3.99993896484375L58.999755859375 624Q44.19976806640625 661.3999633789062 25.899810791015625 674.1999816894531Q7.599853515625 687 -8.0001220703125 688V708Q15.2000732421875 707 48.50030517578125 706.0Q81.800537109375 705 114.00079345703125 705Q155.40093994140625 705 191.60107421875 706.0Q227.80120849609375 707 250.00128173828125 708V688Q216.601318359375 687 199.00131225585938 680.2000122070312Q181.40130615234375 673.4000244140625 179.7012939453125 655.9000244140625Q178.00128173828125 638.4000244140625 191.2012939453125 604L376.001220703125 121.0006103515625L358.401123046875 101.200439453125L520.400390625 526.798828125Q543.4005126953125 587.5992431640625 543.0005493164062 622.2994995117188Q542.6005859375 656.999755859375 520.6005859375 671.9998779296875Q498.6005859375 687 457.0006103515625 688V708Q487.80072021484375 707 517.7007141113281 706.0Q547.6007080078125 705 575.2008056640625 705Q600.000732421875 705 617.80078125 706.0Q635.600830078125 707 650.600830078125 708Z" fill="#F5EFE2"/><path transform="translate(498.98,286.00) scale(0.09200,-0.09200)" d="M550.2005615234375 708Q546.2005615234375 669.9998168945312 544.7005615234375 634.2996520996094Q543.2005615234375 598.5994873046875 543.2005615234375 579.9993896484375Q543.2005615234375 561.418709047379 544.2005615234375 544.3864184964089Q545.2005615234375 527.3541279454386 546.2005615234375 515.999267578125H523.2005615234375Q516.00048828125 579.799560546875 501.60028076171875 616.8997192382812Q487.2000732421875 653.9998779296875 458.49993896484375 669.4999389648438Q429.7998046875 685 379.199951171875 685H310.2008056640625Q277.876270238904 685 261.2386417112489 679.7000122070312Q244.60101318359375 674.4000244140625 238.90103149414062 657.7750778198242Q233.2010498046875 641.1501312255859 233.2010498046875 606.000244140625V101.999755859375Q233.2010498046875 67.79986572265625 238.90103149414062 50.699920654296875Q244.60101318359375 33.5999755859375 261.2386417112489 28.29998779296875Q277.876270238904 23 310.2008056640625 23H375.2003173828125Q432.199951171875 23 465.5 40.900054931640625Q498.800048828125 58.80010986328125 516.6002502441406 100.00027465820312Q534.4004516601562 141.200439453125 543.2005615234375 212.000732421875H566.2005615234375Q563.2005615234375 183.20062255859375 563.2005615234375 136.00048828125Q563.2005615234375 115.81819390190972 564.6005554199219 78.10917019314236Q566.0005493164062 40.400146484375 570.2005615234375 0Q519.2005615234375 2 455.2005615234375 2.5Q391.2005615234375 3 341.2005615234375 3Q318.2787661345109 3 282.3332233655123 3.0Q246.38768059651372 3 204.7116889802835 2.5Q163.03569736405325 2 120.31780595741725 1.5Q77.59991455078125 1 39.1998291015625 0V20Q72.59979248046875 22 89.5784840685256 28.0Q106.55717565658244 34 112.37844134391622 52.0Q118.19970703125 70 118.19970703125 106V602Q118.19970703125 639 112.3529078706782 656.5Q106.50610871010639 674 89.45294449177194 680.5Q72.3997802734375 687 39.1998291015625 688V708Q77.69235716747636 707 120.34623961889443 706.5Q163.0001220703125 706 204.68443539268094 705.5Q246.36874871504935 705 282.32146895559214 705.0Q318.2741891961349 705 341.2005615234375 705Q387.2005615234375 705 445.7005615234375 705.5Q504.2005615234375 706 550.2005615234375 708ZM383.60089111328125 366Q383.60089111328125 366 383.60089111328125 356.0Q383.60089111328125 346 383.60089111328125 346H203.2010498046875Q203.2010498046875 346 203.2010498046875 356.0Q203.2010498046875 366 203.2010498046875 366ZM412.60089111328125 498Q408.60089111328125 441 409.10089111328125 411.0Q409.60089111328125 381 409.60089111328125 356Q409.60089111328125 331 410.60089111328125 301.0Q411.60089111328125 271 415.60089111328125 214H392.60089111328125Q388.20086669921875 247.00006103515625 380.1007080078125 277.4000549316406Q372.00054931640625 307.800048828125 351.4004211425781 326.9000244140625Q330.80029296875 346 288.0003662109375 346V366Q320.00030517578125 366 338.6003723144531 379.1999816894531Q357.200439453125 392.39996337890625 367.1005554199219 413.199951171875Q377.00067138671875 433.99993896484375 381.7007751464844 456.5999450683594Q386.40087890625 479.199951171875 389.60089111328125 498Z" fill="#F5EFE2"/><path transform="translate(575.74,286.00) scale(0.09200,-0.09200)" d="M39.1998291015625 708Q61.7999267578125 707 98.50009155273438 706.0Q135.20025634765625 705 171.200439453125 705Q218.80047607421875 705 262.4005126953125 706.0Q306.00054931640625 707 324.2005615234375 707Q409.40081787109375 707 465.5009765625 684.800048828125Q521.6011352539062 662.60009765625 549.4012145996094 623.3001098632812Q577.2012939453125 584.0001220703125 577.2012939453125 533Q577.2012939453125 501.59991455078125 564.6012573242188 467.39990234375Q552.001220703125 433.19989013671875 521.2011413574219 403.4999084472656Q490.40106201171875 373.7999267578125 437.1009216308594 354.89996337890625Q383.80078125 336 302.2005615234375 336H206.2005615234375V356H292.2005615234375Q359.2003173828125 356 394.50018310546875 378.5Q429.800048828125 401 442.5 438.5Q455.199951171875 476 455.199951171875 522Q455.199951171875 601 420.900146484375 644.5Q386.600341796875 688 303.2008056640625 688Q259.6009521484375 688 246.4010009765625 671.0Q233.2010498046875 654 233.2010498046875 602V106Q233.2010498046875 70 239.10104370117188 52.0Q245.00103759765625 34 262.0010070800781 28.0Q279.0009765625 22 312.200927734375 20V0Q288.0008544921875 2 251.30072021484375 2.5Q214.6005859375 3 177.200439453125 3Q135.20025634765625 3 98.50009155273438 2.5Q61.7999267578125 2 39.1998291015625 0V20Q72.59979248046875 22 89.59976196289062 28.0Q106.5997314453125 34 112.39971923828125 52.0Q118.19970703125 70 118.19970703125 106V602Q118.19970703125 639 112.39971923828125 656.5Q106.5997314453125 674 89.499755859375 680.5Q72.3997802734375 687 39.1998291015625 688ZM208.200439453125 353Q258.6002197265625 351.20001220703125 289.80023193359375 348.6000061035156Q321.000244140625 346 342.0003356933594 343.8999938964844Q363.00042724609375 341.79998779296875 381.200439453125 339.20001220703125Q456.200927734375 329.40008544921875 490.501220703125 299.4000549316406Q524.801513671875 269.4000244140625 538.4014892578125 207.4000244140625L562.6014404296875 105Q572.201416015625 62.40008544921875 582.6014099121094 44.000152587890625Q593.0014038085938 25.6002197265625 614.0013427734375 26.40020751953125Q629.6012573242188 27.2001953125 640.2012023925781 35.80010986328125Q650.8011474609375 44.4000244140625 662.60107421875 59.39990234375L677.2010498046875 47.9998779296875Q654.200927734375 16.9998779296875 628.9007568359375 1.49993896484375Q603.6005859375 -14 561.6005249023438 -14Q519.0001831054688 -14 488.60003662109375 8.300018310546875Q458.19989013671875 30.60003662109375 445.199951171875 94L424.60003662109375 194Q416.2000732421875 236.5999755859375 405.2001037597656 268.1999816894531Q394.20013427734375 299.79998779296875 374.8002014160156 317.8999938964844Q355.4002685546875 336 318.200439453125 336H210.200439453125Z" fill="#F5EFE2"/><path transform="translate(656.74,286.00) scale(0.09200,-0.09200)" d="M338.00091552734375 711.9999389648438 581.6008911132812 84Q596.40087890625 46.800048828125 614.8008422851562 33.9000244140625Q633.2008056640625 21 648.6007690429688 20V0Q625.4005737304688 2 592.600341796875 2.5Q559.8001098632812 3 526.599853515625 3Q485.19970703125 3 448.99957275390625 2.5Q412.7994384765625 2 390.599365234375 0V20Q441.599365234375 22 455.4993591308594 37.5Q469.39935302734375 53 449.39935302734375 104L268.59967041015625 590.1993408203125L285.39971923828125 607.599609375L118.60015869140625 174.20074462890625Q100.800048828125 129.200439453125 97.30001831054688 99.30029296875Q93.79998779296875 69.400146484375 102.60000610351562 52.40008544921875Q111.4000244140625 35.4000244140625 132.20004272460938 28.20001220703125Q153.00006103515625 21 183.800048828125 20V0Q153.99993896484375 2 123.699951171875 2.5Q93.39996337890625 3 65.599853515625 3Q41.7999267578125 3 23.4998779296875 2.5Q5.1998291015625 2 -9.8001708984375 0V20Q10.79986572265625 24.79998779296875 32.099884033203125 44.7000732421875Q53.39990234375 64.60015869140625 71.79998779296875 113.0003662109375L304.1998291015625 711.9999389648438Q312.2000732421875 711.5999145507812 321.1003723144531 711.5999145507812Q330.00067138671875 711.5999145507812 338.00091552734375 711.9999389648438ZM442.599853515625 288V268H144.599853515625L154.599853515625 288Z" fill="#F5EFE2"/><rect x="418.0" y="320.0" width="64" height="1.6" fill="#C8A24C"/><path transform="translate(222.72,364.00) scale(0.01123,-0.01123)" d="M1135 0V4Q1137 9 1138.0 19.0Q1139 29 1139 37Q1139 68 1130.5 105.5Q1122 143 1098 199L977 471Q921 473 828.0 473.0Q735 473 627 473Q548 473 474.5 473.0Q401 473 342 471L227 207Q212 170 195.0 126.0Q178 82 178 37Q178 24 180.0 15.5Q182 7 184 4V0H-20V4Q-2 23 25.0 71.5Q52 120 84 193L657 1464H737L1280 242Q1299 199 1319.5 158.5Q1340 118 1358.0 86.0Q1376 54 1390.0 32.0Q1404 10 1409 4V0ZM487 559Q545 559 606.0 559.5Q667 560 725.5 560.5Q784 561 838.0 561.5Q892 562 936 563L655 1198L379 559Z" fill="#F5EFE2"/><path transform="translate(249.32,364.00) scale(0.01123,-0.01123)" d="M1169 1042Q1169 1127 1167.0 1190.5Q1165 1254 1161.0 1300.5Q1157 1347 1152.0 1378.0Q1147 1409 1141 1430V1434H1319V1430Q1313 1409 1307.5 1378.0Q1302 1347 1298.5 1300.5Q1295 1254 1292.5 1190.5Q1290 1127 1290 1042V502Q1290 359 1249.0 258.0Q1208 157 1135.0 92.5Q1062 28 960.0 -1.5Q858 -31 737 -31Q616 -31 511.5 -3.0Q407 25 329.5 87.5Q252 150 208.0 249.5Q164 349 164 492V1042Q164 1127 162.0 1190.5Q160 1254 156.0 1300.5Q152 1347 146.5 1378.0Q141 1409 135 1430V1434H375V1430Q369 1409 363.5 1378.0Q358 1347 354.0 1300.5Q350 1254 348.0 1190.5Q346 1127 346 1042V481Q346 362 381.5 284.5Q417 207 475.0 161.5Q533 116 607.0 98.0Q681 80 758 80Q835 80 909.0 98.0Q983 116 1040.5 161.5Q1098 207 1133.5 284.5Q1169 362 1169 481Z" fill="#F5EFE2"/><path transform="translate(276.65,364.00) scale(0.01123,-0.01123)" d="M520 1346Q402 1346 307.0 1335.5Q212 1325 143 1313Q63 1298 0 1280L29 1442Q41 1441 65.0 1440.0Q89 1439 118.5 1438.0Q148 1437 180.5 1436.5Q213 1436 242.0 1435.5Q271 1435 293.5 1434.5Q316 1434 326 1434H897Q907 1434 929.5 1434.5Q952 1435 981.0 1435.5Q1010 1436 1042.5 1436.5Q1075 1437 1104.5 1438.0Q1134 1439 1158.0 1440.0Q1182 1441 1194 1442L1223 1280Q1159 1298 1079 1313Q1010 1325 915.0 1335.5Q820 1346 702 1346V391Q702 306 704.5 242.5Q707 179 710.5 133.0Q714 87 719.5 56.0Q725 25 731 4V0H492V4Q498 25 503.0 56.0Q508 87 512.0 133.0Q516 179 518.0 242.5Q520 306 520 391Z" fill="#F5EFE2"/><path transform="translate(301.38,364.00) scale(0.01123,-0.01123)" d="M797 1458Q964 1458 1105.5 1403.5Q1247 1349 1350.0 1250.5Q1453 1152 1511.0 1014.0Q1569 876 1569 709Q1569 614 1547.0 522.0Q1525 430 1482.5 348.0Q1440 266 1378.0 196.5Q1316 127 1236.5 76.5Q1157 26 1061.0 -2.5Q965 -31 854 -31Q687 -31 545.5 22.5Q404 76 301.0 174.0Q198 272 140.0 409.5Q82 547 82 715Q82 810 104.0 902.0Q126 994 168.5 1077.0Q211 1160 272.5 1229.5Q334 1299 413.5 1350.0Q493 1401 589.5 1429.5Q686 1458 797 1458ZM854 59Q965 59 1057.0 99.0Q1149 139 1215.5 215.0Q1282 291 1319.0 400.5Q1356 510 1356 649Q1356 803 1320.5 934.5Q1285 1066 1215.0 1162.5Q1145 1259 1040.5 1313.5Q936 1368 797 1368Q686 1368 594.0 1328.5Q502 1289 435.5 1214.0Q369 1139 332.0 1030.0Q295 921 295 782Q295 629 330.0 496.5Q365 364 435.0 267.0Q505 170 610.0 114.5Q715 59 854 59Z" fill="#F5EFE2"/><path transform="translate(330.92,364.00) scale(0.01123,-0.01123)" d="M72 4Q83 20 97.0 51.5Q111 83 119 131Q130 201 143.5 288.5Q157 376 171.5 472.0Q186 568 200.5 668.5Q215 769 228.5 866.5Q242 964 254.5 1054.5Q267 1145 277.0 1220.0Q287 1295 293.5 1350.5Q300 1406 303 1434H430L1059 258L1683 1434H1778L1942 246Q1949 190 1957.0 150.0Q1965 110 1973.0 81.5Q1981 53 1988.5 34.5Q1996 16 2003 4V0H1751V4Q1756 15 1760.5 40.0Q1765 65 1765 100Q1765 113 1764.0 126.5Q1763 140 1761 156L1634 1114L1044 4L975 12L381 1124Q346 887 320 686Q309 600 298.0 514.5Q287 429 278.5 355.0Q270 281 265.0 224.5Q260 168 260 141Q260 107 262.0 81.0Q264 55 266 37Q269 16 272 0H72Z" fill="#F5EFE2"/><path transform="translate(365.34,364.00) scale(0.01123,-0.01123)" d="M1135 0V4Q1137 9 1138.0 19.0Q1139 29 1139 37Q1139 68 1130.5 105.5Q1122 143 1098 199L977 471Q921 473 828.0 473.0Q735 473 627 473Q548 473 474.5 473.0Q401 473 342 471L227 207Q212 170 195.0 126.0Q178 82 178 37Q178 24 180.0 15.5Q182 7 184 4V0H-20V4Q-2 23 25.0 71.5Q52 120 84 193L657 1464H737L1280 242Q1299 199 1319.5 158.5Q1340 118 1358.0 86.0Q1376 54 1390.0 32.0Q1404 10 1409 4V0ZM487 559Q545 559 606.0 559.5Q667 560 725.5 560.5Q784 561 838.0 561.5Q892 562 936 563L655 1198L379 559Z" fill="#F5EFE2"/><path transform="translate(391.94,364.00) scale(0.01123,-0.01123)" d="M520 1346Q402 1346 307.0 1335.5Q212 1325 143 1313Q63 1298 0 1280L29 1442Q41 1441 65.0 1440.0Q89 1439 118.5 1438.0Q148 1437 180.5 1436.5Q213 1436 242.0 1435.5Q271 1435 293.5 1434.5Q316 1434 326 1434H897Q907 1434 929.5 1434.5Q952 1435 981.0 1435.5Q1010 1436 1042.5 1436.5Q1075 1437 1104.5 1438.0Q1134 1439 1158.0 1440.0Q1182 1441 1194 1442L1223 1280Q1159 1298 1079 1313Q1010 1325 915.0 1335.5Q820 1346 702 1346V391Q702 306 704.5 242.5Q707 179 710.5 133.0Q714 87 719.5 56.0Q725 25 731 4V0H492V4Q498 25 503.0 56.0Q508 87 512.0 133.0Q516 179 518.0 242.5Q520 306 520 391Z" fill="#F5EFE2"/><path transform="translate(416.67,364.00) scale(0.01123,-0.01123)" d="M152 4Q158 25 163.0 56.0Q168 87 172.0 133.0Q176 179 178.0 242.5Q180 306 180 391V1042Q180 1127 178.0 1190.5Q176 1254 172.0 1300.5Q168 1347 163.0 1378.0Q158 1409 152 1430V1434H391V1430Q385 1409 379.5 1378.0Q374 1347 370.5 1300.5Q367 1254 364.5 1190.5Q362 1127 362 1042V391Q362 306 364.5 242.5Q367 179 370.5 133.0Q374 87 379.5 56.0Q385 25 391 4V0H152Z" fill="#F5EFE2"/><path transform="translate(433.77,364.00) scale(0.01123,-0.01123)" d="M797 1458Q964 1458 1105.5 1403.5Q1247 1349 1350.0 1250.5Q1453 1152 1511.0 1014.0Q1569 876 1569 709Q1569 614 1547.0 522.0Q1525 430 1482.5 348.0Q1440 266 1378.0 196.5Q1316 127 1236.5 76.5Q1157 26 1061.0 -2.5Q965 -31 854 -31Q687 -31 545.5 22.5Q404 76 301.0 174.0Q198 272 140.0 409.5Q82 547 82 715Q82 810 104.0 902.0Q126 994 168.5 1077.0Q211 1160 272.5 1229.5Q334 1299 413.5 1350.0Q493 1401 589.5 1429.5Q686 1458 797 1458ZM854 59Q965 59 1057.0 99.0Q1149 139 1215.5 215.0Q1282 291 1319.0 400.5Q1356 510 1356 649Q1356 803 1320.5 934.5Q1285 1066 1215.0 1162.5Q1145 1259 1040.5 1313.5Q936 1368 797 1368Q686 1368 594.0 1328.5Q502 1289 435.5 1214.0Q369 1139 332.0 1030.0Q295 921 295 782Q295 629 330.0 496.5Q365 364 435.0 267.0Q505 170 610.0 114.5Q715 59 854 59Z" fill="#F5EFE2"/><path transform="translate(463.31,364.00) scale(0.01123,-0.01123)" d="M199 1434 1229 338V1042Q1229 1127 1227.0 1190.5Q1225 1254 1221.0 1300.5Q1217 1347 1211.5 1378.0Q1206 1409 1200 1430V1434H1378V1430Q1372 1409 1367.0 1378.0Q1362 1347 1358.0 1300.5Q1354 1254 1352.0 1190.5Q1350 1127 1350 1042V-20H1315L285 1075V391Q285 306 287.0 242.5Q289 179 293.0 133.0Q297 87 302.0 56.0Q307 25 313 4V0H135V4Q141 25 146.5 56.0Q152 87 156.0 133.0Q160 179 162.0 242.5Q164 306 164 391V1042Q164 1127 162.0 1190.5Q160 1254 156.0 1300.5Q152 1347 146.5 1378.0Q141 1409 135 1430V1434Z" fill="#F5EFE2"/><path transform="translate(491.31,364.00) scale(0.01123,-0.01123)" d="M102 88Q102 110 110.5 129.5Q119 149 133.5 163.5Q148 178 167.5 186.5Q187 195 209 195Q232 195 251.5 185.5Q271 176 285.5 159.5Q300 143 308.5 121.0Q317 99 317 74Q317 35 299.5 -11.0Q282 -57 253.5 -105.0Q225 -153 189.5 -199.5Q154 -246 117 -287L90 -264Q140 -205 170.0 -147.0Q200 -89 205 -20Q161 -18 131.5 12.0Q102 42 102 88Z" fill="#F5EFE2"/><path transform="translate(524.92,364.00) scale(0.01123,-0.01123)" d="M354 391Q354 306 356.5 242.5Q359 179 362.5 133.0Q366 87 371.5 56.0Q377 25 383 4V0H143V4Q149 25 154.5 56.0Q160 87 163.5 133.0Q167 179 169.5 242.0Q172 305 172 391V1042Q172 1127 169.5 1190.5Q167 1254 163.5 1300.0Q160 1346 154.5 1377.5Q149 1409 143 1430V1434L185 1430Q204 1428 227.5 1427.5Q251 1427 276 1427Q315 1427 381.5 1436.5Q448 1446 551 1446Q647 1446 728.5 1420.0Q810 1394 870.0 1344.0Q930 1294 963.5 1221.5Q997 1149 997 1057Q997 985 978.5 923.5Q960 862 926.5 812.0Q893 762 846.0 723.5Q799 685 741 659L1092 166Q1118 129 1140.5 102.0Q1163 75 1183.5 55.5Q1204 36 1223.0 23.5Q1242 11 1262 4V0H973Q970 19 953.5 50.5Q937 82 915 113L561 612Q538 610 515.0 608.5Q492 607 468 607Q440 607 411.5 609.0Q383 611 354 616ZM354 694Q381 688 409.0 685.5Q437 683 463 683Q538 683 600.0 705.5Q662 728 705.5 774.0Q749 820 773.0 888.5Q797 957 797 1049Q797 1124 780.0 1185.0Q763 1246 729.5 1288.5Q696 1331 645.0 1354.5Q594 1378 526 1378Q457 1378 416.0 1371.0Q375 1364 354 1356Z" fill="#F5EFE2"/><path transform="translate(549.51,364.00) scale(0.01123,-0.01123)" d="M143 1434Q268 1434 391.5 1435.0Q515 1436 618.0 1437.5Q721 1439 794.0 1442.0Q867 1445 893 1450L844 1317Q811 1326 767 1333Q729 1339 674.5 1344.5Q620 1350 549 1350Q525 1350 491.5 1348.5Q458 1347 427 1345Q391 1343 354 1341V795Q457 796 540.0 801.0Q623 806 681 811Q749 817 801 825L770 680Q701 689 629 697Q567 704 494.0 709.5Q421 715 354 715V88Q472 88 571.0 98.0Q670 108 744 121Q830 135 901 154L872 -8Q860 -7 836.0 -6.0Q812 -5 782.5 -4.0Q753 -3 720.5 -2.5Q688 -2 659.0 -1.5Q630 -1 607.5 -0.5Q585 0 575 0H143V4Q149 25 154.5 56.0Q160 87 164.0 133.0Q168 179 170.0 242.5Q172 306 172 391V1042Q172 1127 170.0 1190.5Q168 1254 164.0 1300.5Q160 1347 154.5 1378.0Q149 1409 143 1430V1434Z" fill="#F5EFE2"/><path transform="translate(571.78,364.00) scale(0.01123,-0.01123)" d="M354 391Q354 306 356.5 242.5Q359 179 362.5 133.0Q366 87 371.5 56.0Q377 25 383 4V0H143V4Q149 25 154.5 56.0Q160 87 164.0 133.0Q168 179 170.0 242.5Q172 306 172 391V1042Q172 1127 170.0 1190.5Q168 1254 164.0 1300.5Q160 1347 154.5 1378.0Q149 1409 143 1430V1434Q226 1434 311.0 1434.5Q396 1435 476.0 1435.5Q556 1436 628.0 1437.5Q700 1439 758.0 1440.5Q816 1442 856.0 1444.5Q896 1447 913 1450L864 1317Q831 1326 787 1333Q749 1339 694.5 1344.5Q640 1350 569 1350Q545 1350 509.0 1348.5Q473 1347 438 1345Q398 1343 354 1341V836Q457 837 543.0 842.0Q629 847 691 852Q763 858 821 866L791 721Q716 730 639 738Q573 745 497.0 750.5Q421 756 354 756Z" fill="#F5EFE2"/><path transform="translate(593.50,364.00) scale(0.01123,-0.01123)" d="M152 4Q158 25 163.0 56.0Q168 87 172.0 133.0Q176 179 178.0 242.5Q180 306 180 391V1042Q180 1127 178.0 1190.5Q176 1254 172.0 1300.5Q168 1347 163.0 1378.0Q158 1409 152 1430V1434H391V1430Q385 1409 379.5 1378.0Q374 1347 370.5 1300.5Q367 1254 364.5 1190.5Q362 1127 362 1042V391Q362 306 364.5 242.5Q367 179 370.5 133.0Q374 87 379.5 56.0Q385 25 391 4V0H152Z" fill="#F5EFE2"/><path transform="translate(610.59,364.00) scale(0.01123,-0.01123)" d="M199 1434 1229 338V1042Q1229 1127 1227.0 1190.5Q1225 1254 1221.0 1300.5Q1217 1347 1211.5 1378.0Q1206 1409 1200 1430V1434H1378V1430Q1372 1409 1367.0 1378.0Q1362 1347 1358.0 1300.5Q1354 1254 1352.0 1190.5Q1350 1127 1350 1042V-20H1315L285 1075V391Q285 306 287.0 242.5Q289 179 293.0 133.0Q297 87 302.0 56.0Q307 25 313 4V0H135V4Q141 25 146.5 56.0Q152 87 156.0 133.0Q160 179 162.0 242.5Q164 306 164 391V1042Q164 1127 162.0 1190.5Q160 1254 156.0 1300.5Q152 1347 146.5 1378.0Q141 1409 135 1430V1434Z" fill="#F5EFE2"/><path transform="translate(638.59,364.00) scale(0.01123,-0.01123)" d="M143 1434Q268 1434 391.5 1435.0Q515 1436 618.0 1437.5Q721 1439 794.0 1442.0Q867 1445 893 1450L844 1317Q811 1326 767 1333Q729 1339 674.5 1344.5Q620 1350 549 1350Q525 1350 491.5 1348.5Q458 1347 427 1345Q391 1343 354 1341V795Q457 796 540.0 801.0Q623 806 681 811Q749 817 801 825L770 680Q701 689 629 697Q567 704 494.0 709.5Q421 715 354 715V88Q472 88 571.0 98.0Q670 108 744 121Q830 135 901 154L872 -8Q860 -7 836.0 -6.0Q812 -5 782.5 -4.0Q753 -3 720.5 -2.5Q688 -2 659.0 -1.5Q630 -1 607.5 -0.5Q585 0 575 0H143V4Q149 25 154.5 56.0Q160 87 164.0 133.0Q168 179 170.0 242.5Q172 306 172 391V1042Q172 1127 170.0 1190.5Q168 1254 164.0 1300.5Q160 1347 154.5 1378.0Q149 1409 143 1430V1434Z" fill="#F5EFE2"/><path transform="translate(660.86,364.00) scale(0.01123,-0.01123)" d="M362 1348Q360 1236 358 1131Q357 1086 356.5 1039.0Q356 992 355.5 946.5Q355 901 354.5 859.5Q354 818 354 786Q354 719 355.0 624.0Q356 529 357.5 429.0Q359 329 362.0 237.0Q365 145 369 84Q383 82 406.5 79.5Q430 77 456.0 75.5Q482 74 507.0 73.0Q532 72 549 72Q619 72 692.5 81.5Q766 91 834.5 117.0Q903 143 963.5 188.5Q1024 234 1069.5 306.0Q1115 378 1141.0 479.5Q1167 581 1167 719Q1167 872 1130.0 991.5Q1093 1111 1021.5 1193.0Q950 1275 844.5 1317.5Q739 1360 602 1360Q575 1360 541.0 1358.5Q507 1357 473.5 1355.5Q440 1354 410.5 1351.5Q381 1349 362 1348ZM143 1438Q166 1437 186 1436Q203 1435 221.0 1434.5Q239 1434 250 1434Q269 1434 313.5 1436.0Q358 1438 415.0 1440.0Q472 1442 533.5 1444.0Q595 1446 649 1446Q794 1446 925.0 1410.0Q1056 1374 1155.0 1292.0Q1254 1210 1312.0 1077.0Q1370 944 1370 750Q1370 611 1339.5 500.0Q1309 389 1254.0 304.0Q1199 219 1122.5 158.5Q1046 98 953.5 59.0Q861 20 756.0 2.0Q651 -16 539 -16Q499 -16 442.5 -13.5Q386 -11 329.0 -8.0Q272 -5 221.5 -2.5Q171 0 143 0V4Q149 25 154.5 56.0Q160 87 164.0 133.0Q168 179 170.0 242.5Q172 306 172 391V1042Q172 1127 170.0 1191.5Q168 1256 164.0 1302.5Q160 1349 154.5 1381.0Q149 1413 143 1434Z" fill="#F5EFE2"/></svg>