<svg xmlns="http://www.w3.org/2000/svg" viewBox="0 0 512 512" width="512" height="512"><circle cx="256.0" cy="256.0" r="174.1" fill="none" stroke="#C8A24C" stroke-width="9.2"/><path transform="translate(191.34,343.69) scale(0.23300,-0.23300)" d="M265.2005615234375 719.6000366210938Q318.20074462890625 719.6000366210938 346.20086669921875 707.8000183105469Q374.20098876953125 696 395.2010498046875 682Q407.2010498046875 675 414.7010498046875 671.5Q422.2010498046875 668 429.2010498046875 668Q439.2010498046875 668 443.7010498046875 679.0Q448.2010498046875 690 451.2010498046875 712H474.2010498046875Q473.2010498046875 694.199951171875 471.7010498046875 669.7998962402344Q470.2010498046875 645.3998413085938 469.7010498046875 605.3997497558594Q469.2010498046875 565.399658203125 469.2010498046875 499.99951171875H446.2010498046875Q443.00103759765625 549.3995971679688 424.3009948730469 594.9996948242188Q405.6009521484375 640.5997924804688 370.50091552734375 669.7998657226562Q335.40087890625 698.9999389648438 280.200927734375 698.9999389648438Q229.00103759765625 698.9999389648438 195.60110473632812 668.6000366210938Q162.201171875 638.2001342773438 162.201171875 587.6002197265625Q162.201171875 544.2003173828125 184.20111083984375 514.5003662109375Q206.2010498046875 484.8004150390625 244.7010498046875 459.4003601074219Q283.2010498046875 434.00030517578125 331.80126953125 402.80010986328125Q382.40118408203125 371.0001220703125 422.10113525390625 339.6001281738281Q461.80108642578125 308.20013427734375 485.0010681152344 270.0001220703125Q508.2010498046875 231.80010986328125 508.2010498046875 177.60009765625Q508.2010498046875 113.00006103515625 477.5009460449219 70.60003662109375Q446.80084228515625 28.20001220703125 396.00067138671875 7.100006103515625Q345.20050048828125 -14 284.2003173828125 -14Q228.20013427734375 -14 195.30001831054688 -2.0Q162.39990234375 10 139.1998291015625 23Q117.1998291015625 37 105.1998291015625 37Q95.1998291015625 37 90.6998291015625 26.0Q86.1998291015625 15 83.1998291015625 -7H60.1998291015625Q62.1998291015625 15.00006103515625 62.6998291015625 44.70013427734375Q63.1998291015625 74.40020751953125 63.6998291015625 122.2003173828125Q64.1998291015625 170.00042724609375 64.1998291015625 243.0006103515625H87.1998291015625Q91.1998291015625 181.00048828125 109.6998291015625 127.20037841796875Q128.1998291015625 73.4002685546875 166.6998291015625 40.7001953125Q205.1998291015625 8.0001220703125 269.1998291015625 8.0001220703125Q302.9998779296875 8.0001220703125 331.89984130859375 21.10009765625Q360.7998046875 34.2000732421875 378.999755859375 62.199981689453125Q397.19970703125 90.19989013671875 397.19970703125 133.99969482421875Q397.19970703125 175.19970703125 377.7997131347656 205.89971923828125Q358.39971923828125 236.5997314453125 323.8997497558594 263.29974365234375Q289.3997802734375 289.999755859375 243.1998291015625 317.999755859375Q196.1998291015625 347.59979248046875 155.1998291015625 377.99981689453125Q114.1998291015625 408.39984130859375 89.6998291015625 447.9998474121094Q65.1998291015625 487.599853515625 65.1998291015625 543.3998413085938Q65.1998291015625 603.7999267578125 93.39993286132812 642.8999633789062Q121.60003662109375 682 167.40020751953125 700.8000183105469Q213.20037841796875 719.6000366210938 265.2005615234375 719.6000366210938Z" fill="#C8A24C"/></svg>