<svg xmlns="http://www.w3.org/2000/svg" viewBox="0 0 798 220" width="798" height="220"><rect width="798" height="220" fill="#122140"/><circle cx="110.0" cy="110.0" r="60.0" fill="none" stroke="#C8A24C" stroke-width="2.3"/><path transform="translate(86.14,144.10) scale(0.08600,-0.08600)" d="M265.2005615234375 719.6000366210938Q318.20074462890625 719.6000366210938 346.20086669921875 707.8000183105469Q374.20098876953125 696 395.2010498046875 682Q407.2010498046875 675 414.7010498046875 671.5Q422.2010498046875 668 429.2010498046875 668Q439.2010498046875 668 443.7010498046875 679.0Q448.2010498046875 690 451.2010498046875 712H474.2010498046875Q473.2010498046875 694.199951171875 471.7010498046875 669.7998962402344Q470.2010498046875 645.3998413085938 469.7010498046875 605.3997497558594Q469.2010498046875 565.399658203125 469.2010498046875 499.99951171875H446.2010498046875Q443.00103759765625 549.3995971679688 424.3009948730469 594.9996948242188Q405.6009521484375 640.5997924804688 370.50091552734375 669.7998657226562Q335.40087890625 698.9999389648438 280.200927734375 698.9999389648438Q229.00103759765625 698.9999389648438 195.60110473632812 668.6000366210938Q162.201171875 638.2001342773438 162.201171875 587.6002197265625Q162.201171875 544.2003173828125 184.20111083984375 514.5003662109375Q206.2010498046875 484.8004150390625 244.7010498046875 459.4003601074219Q283.2010498046875 434.00030517578125 331.80126953125 402.80010986328125Q382.40118408203125 371.0001220703125 422.10113525390625 339.6001281738281Q461.80108642578125 308.20013427734375 485.0010681152344 270.0001220703125Q508.2010498046875 231.80010986328125 508.2010498046875 177.60009765625Q508.2010498046875 113.00006103515625 477.5009460449219 70.60003662109375Q446.80084228515625 28.20001220703125 396.00067138671875 7.100006103515625Q345.20050048828125 -14 284.2003173828125 -14Q228.20013427734375 -14 195.30001831054688 -2.0Q162.39990234375 10 139.1998291015625 23Q117.1998291015625 37 105.1998291015625 37Q95.1998291015625 37 90.6998291015625 26.0Q86.1998291015625 15 83.1998291015625 -7H60.1998291015625Q62.1998291015625 15.00006103515625 62.6998291015625 44.70013427734375Q63.1998291015625 74.40020751953125 63.6998291015625 122.2003173828125Q64.1998291015625 170.00042724609375 64.1998291015625 243.0006103515625H87.1998291015625Q91.1998291015625 181.00048828125 109.6998291015625 127.20037841796875Q128.1998291015625 73.4002685546875 166.6998291015625 40.7001953125Q205.1998291015625 8.0001220703125 269.1998291015625 8.0001220703125Q302.9998779296875 8.0001220703125 331.89984130859375 21.10009765625Q360.7998046875 34.2000732421875 378.999755859375 62.199981689453125Q397.19970703125 90.19989013671875 397.19970703125 133.99969482421875Q397.19970703125 175.19970703125 377.7997131347656 205.89971923828125Q358.39971923828125 236.5997314453125 323.8997497558594 263.29974365234375Q289.3997802734375 289.999755859375 243.1998291015625 317.999755859375Q196.1998291015625 347.59979248046875 155.1998291015625 377.99981689453125Q114.1998291015625 408.39984130859375 89.6998291015625 447.9998474121094Q65.1998291015625 487.599853515625 65.1998291015625 543.3998413085938Q65.1998291015625 603.7999267578125 93.39993286132812 642.8999633789062Q121.60003662109375 682 167.40020751953125 700.8000183105469Q213.20037841796875 719.6000366210938 265.2005615234375 719.6000366210938Z" fill="#C8A24C"/><rect x="192.3" y="70.4" width="1.4" height="79.2" fill="#C8A24C"/><path transform="translate(216.00,142.20) scale(0.09200,-0.09200)" d="M265.2005615234375 719.6000366210938Q318.20074462890625 719.6000366210938 346.20086669921875 707.8000183105469Q374.20098876953125 696 395.2010498046875 682Q407.2010498046875 675 414.7010498046875 671.5Q422.2010498046875 668 429.2010498046875 668Q439.2010498046875 668 443.7010498046875 679.0Q448.2010498046875 690 451.2010498046875 712H474.2010498046875Q473.2010498046875 694.199951171875 471.7010498046875 669.7998962402344Q470.2010498046875 645.3998413085938 469.7010498046875 605.3997497558594Q469.2010498046875 565.399658203125 469.2010498046875 499.99951171875H446.2010498046875Q443.00103759765625 549.3995971679688 424.3009948730469 594.9996948242188Q405.6009521484375 640.5997924804688 370.50091552734375 669.7998657226562Q335.40087890625 698.9999389648438 280.200927734375 698.9999389648438Q229.00103759765625 698.9999389648438 195.60110473632812 668.6000366210938Q162.201171875 638.2001342773438 162.201171875 587.6002197265625Q162.201171875 544.2003173828125 184.20111083984375 514.5003662109375Q206.2010498046875 484.8004150390625 244.7010498046875 459.4003601074219Q283.2010498046875 434.00030517578125 331.80126953125 402.80010986328125Q382.40118408203125 371.0001220703125 422.10113525390625 339.6001281738281Q461.80108642578125 308.20013427734375 485.0010681152344 270.0001220703125Q508.2010498046875 231.80010986328125 508.2010498046875 177.60009765625Q508.2010498046875 113.00006103515625 477.5009460449219 70.60003662109375Q446.80084228515625 28.20001220703125 396.00067138671875 7.100006103515625Q345.20050048828125 -14 284.2003173828125 -14Q228.20013427734375 -14 195.30001831054688 -2.0Q162.39990234375 10 139.1998291015625 23Q117.1998291015625 37 105.1998291015625 37Q95.1998291015625 37 90.6998291015625 26.0Q86.1998291015625 15 83.1998291015625 -7H60.1998291015625Q62.1998291015625 15.00006103515625 62.6998291015625 44.70013427734375Q63.1998291015625 74.40020751953125 63.6998291015625 122.2003173828125Q64.1998291015625 170.00042724609375 64.1998291015625 243.0006103515625H87.1998291015625Q91.1998291015625 181.00048828125 109.6998291015625 127.20037841796875Q128.1998291015625 73.4002685546875 166.6998291015625 40.7001953125Q205.1998291015625 8.0001220703125 269.1998291015625 8.0001220703125Q302.9998779296875 8.0001220703125 331.89984130859375 21.10009765625Q360.7998046875 34.2000732421875 378.999755859375 62.199981689453125Q397.19970703125 90.19989013671875 397.19970703125 133.99969482421875Q397.19970703125 175.19970703125 377.7997131347656 205.89971923828125Q358.39971923828125 236.5997314453125 323.8997497558594 263.29974365234375Q289.3997802734375 289.999755859375 243.1998291015625 317.999755859375Q196.1998291015625 347.59979248046875 155.1998291015625 377.99981689453125Q114.1998291015625 408.39984130859375 89.6998291015625 447.9998474121094Q65.1998291015625 487.599853515625 65.1998291015625 543.3998413085938Q65.1998291015625 603.7999267578125 93.39993286132812 642.8999633789062Q121.60003662109375 682 167.40020751953125 700.8000183105469Q213.20037841796875 719.6000366210938 265.2005615234375 719.6000366210938Z" fill="#F5EFE2"/><path transform="translate(287.06,142.20) scale(0.09200,-0.09200)" d="M379.611316927903 722Q478.19966542635035 722 552.4003698225501 679.0Q626.60107421875 636 667.6011657714844 555.5Q708.6012573242188 475 708.6012573242188 360Q708.6012573242188 248 666.5714877011965 164.0Q624.5417180781742 80 549.8221276372457 33.0Q475.10253719631714 -14 378.5897328767845 -14Q280.00138437833715 -14 205.80067998213732 29.0Q131.5999755859375 72 90.59988403320312 153.0Q49.59979248046875 234 49.59979248046875 348Q49.59979248046875 460 92.1484481482197 544.0Q134.69710381597065 628 208.8978082121705 675.0Q283.09851260837036 722 379.611316927903 722ZM375.5296544352854 704Q313.6007080078125 704 267.80084228515625 659.0Q222.0009765625 614 196.80105590820312 535.0Q171.60113525390625 456 171.60113525390625 352Q171.60113525390625 246 199.75733596242534 167.5Q227.91353667094444 89 276.11313449400257 46.5Q324.3127323170607 4 382.53402869738835 4Q444.57311500429483 4 490.38659412324114 49.0Q536.2000732421875 94 561.3999938964844 173.5Q586.5999145507812 253 586.5999145507812 356Q586.5999145507812 463 558.3987359580753 541.0Q530.1975573653694 619 482.3989495811222 661.5Q434.600341796875 704 375.5296544352854 704Z" fill="#F5EFE2"/><path transform="translate(376.80,142.20) scale(0.09200,-0.09200)" d="M314.2010498046875 708V688Q280.2010498046875 687 262.7010498046875 680.5Q245.2010498046875 674 239.2010498046875 656.5Q233.2010498046875 639 233.2010498046875 602V101.999755859375Q233.2010498046875 67.79986572265625 238.801025390625 50.699920654296875Q244.4010009765625 33.5999755859375 260.6009216308594 28.29998779296875Q276.80084228515625 23 308.20068359375 23H373.2001953125Q415.99993896484375 23 445.5999450683594 35.0001220703125Q475.199951171875 47.000244140625 494.90008544921875 71.20040893554688Q514.6002197265625 95.40057373046875 526.0003662109375 133.10067749023438Q537.4005126953125 170.80078125 543.2005615234375 222.000732421875H566.2005615234375Q563.2005615234375 190.00067138671875 563.2005615234375 138.0006103515625Q563.2005615234375 117.60052490234375 564.6005554199219 79.30035400390625Q566.0005493164062 41.00018310546875 570.2005615234375 0Q519.2005615234375 2 455.2005615234375 2.5Q391.2005615234375 3 341.2005615234375 3Q318.20050048828125 3 282.3004150390625 3.0Q246.40032958984375 3 204.70022583007812 2.5Q163.0001220703125 2 120.30001831054688 1.5Q77.59991455078125 1 39.1998291015625 0V20Q72.59979248046875 22 89.59976196289062 28.0Q106.5997314453125 34 112.39971923828125 52.0Q118.19970703125 70 118.19970703125 106V602Q118.19970703125 639 112.39971923828125 656.5Q106.5997314453125 674 89.499755859375 680.5Q72.3997802734375 687 39.1998291015625 688V708Q61.7999267578125 707 98.50009155273438 706.0Q135.20025634765625 705 177.200439453125 705Q215.20062255859375 705 252.40078735351562 706.0Q289.6009521484375 707 314.2010498046875 708Z" fill="#F5EFE2"/><path transform="translate(451.63,142.20) scale(0.09200,-0.09200)" d="M650.600830078125 708V688Q630.80078125 682.5999145507812 608.2007141113281 660.8997497558594Q585.6006469726562 639.1995849609375 567.4005737304688 590.3993530273438L340.40106201171875 -3.99993896484375Q336.40093994140625 -3.7999267578125 332.1007995605469 -3.699920654296875Q327.8006591796875 -3.59991455078125 323.4005126953125 -3.59991455078125Q319.20037841796875 -3.59991455078125 314.9002380371094 -3.699920654296875Q310.60009765625 -3.7999267578125 306.5999755859375 -3.99993896484375L58.999755859375 624Q44.19976806640625 661.3999633789062 25.899810791015625 674.1999816894531Q7.599853515625 687 -8.0001220703125 688V708Q15.2000732421875 707 48.50030517578125 706.0Q81.800537109375 705 114.00079345703125 705Q155.40093994140625 705 191.60107421875 706.0Q227.80120849609375 707 250.00128173828125 708V688Q216.601318359375 687 199.00131225585938 680.2000122070312Q181.40130615234375 673.4000244140625 179.7012939453125 655.9000244140625Q178.00128173828125 638.4000244140625 191.2012939453125 604L376.001220703125 121.0006103515625L358.401123046875 101.200439453125L520.400390625 526.798828125Q543.4005126953125 587.5992431640625 543.0005493164062 622.2994995117188Q542.6005859375 656.999755859375 520.6005859375 671.9998779296875Q498.6005859375 687 457.0006103515625 688V708Q487.80072021484375 707 517.7007141113281 706.0Q547.6007080078125 705 575.2008056640625 705Q600.000732421875 705 617.80078125 706.0Q635.600830078125 707 650.600830078125 708Z" fill="#F5EFE2"/><path transform="translate(530.78,142.20) scale(0.09200,-0.09200)" d="M550.2005615234375 708Q546.2005615234375 669.9998168945312 544.7005615234375 634.2996520996094Q543.2005615234375 598.5994873046875 543.2005615234375 579.9993896484375Q543.2005615234375 561.418709047379 544.2005615234375 544.3864184964089Q545.2005615234375 527.3541279454386 546.2005615234375 515.999267578125H523.2005615234375Q516.00048828125 579.799560546875 501.60028076171875 616.8997192382812Q487.2000732421875 653.9998779296875 458.49993896484375 669.4999389648438Q429.7998046875 685 379.199951171875 685H310.2008056640625Q277.876270238904 685 261.2386417112489 679.7000122070312Q244.60101318359375 674.4000244140625 238.90103149414062 657.7750778198242Q233.2010498046875 641.1501312255859 233.2010498046875 606.000244140625V101.999755859375Q233.2010498046875 67.79986572265625 238.90103149414062 50.699920654296875Q244.60101318359375 33.5999755859375 261.2386417112489 28.29998779296875Q277.876270238904 23 310.2008056640625 23H375.2003173828125Q432.199951171875 23 465.5 40.900054931640625Q498.800048828125 58.80010986328125 516.6002502441406 100.00027465820312Q534.4004516601562 141.200439453125 543.2005615234375 212.000732421875H566.2005615234375Q563.2005615234375 183.20062255859375 563.2005615234375 136.00048828125Q563.2005615234375 115.81819390190972 564.6005554199219 78.10917019314236Q566.0005493164062 40.400146484375 570.2005615234375 0Q519.2005615234375 2 455.2005615234375 2.5Q391.2005615234375 3 341.2005615234375 3Q318.2787661345109 3 282.3332233655123 3.0Q246.38768059651372 3 204.7116889802835 2.5Q163.03569736405325 2 120.31780595741725 1.5Q77.59991455078125 1 39.1998291015625 0V20Q72.59979248046875 22 89.5784840685256 28.0Q106.55717565658244 34 112.37844134391622 52.0Q118.19970703125 70 118.19970703125 106V602Q118.19970703125 639 112.3529078706782 656.5Q106.50610871010639 674 89.45294449177194 680.5Q72.3997802734375 687 39.1998291015625 688V708Q77.69235716747636 707 120.34623961889443 706.5Q163.0001220703125 706 204.68443539268094 705.5Q246.36874871504935 705 282.32146895559214 705.0Q318.2741891961349 705 341.2005615234375 705Q387.2005615234375 705 445.7005615234375 705.5Q504.2005615234375 706 550.2005615234375 708ZM383.60089111328125 366Q383.60089111328125 366 383.60089111328125 356.0Q383.60089111328125 346 383.60089111328125 346H203.2010498046875Q203.2010498046875 346 203.2010498046875 356.0Q203.2010498046875 366 203.2010498046875 366ZM412.60089111328125 498Q408.60089111328125 441 409.10089111328125 411.0Q409.60089111328125 381 409.60089111328125 356Q409.60089111328125 331 410.60089111328125 301.0Q411.60089111328125 271 415.60089111328125 214H392.60089111328125Q388.20086669921875 247.00006103515625 380.1007080078125 277.4000549316406Q372.00054931640625 307.800048828125 351.4004211425781 326.9000244140625Q330.80029296875 346 288.0003662109375 346V366Q320.00030517578125 366 338.6003723144531 379.1999816894531Q357.200439453125 392.39996337890625 367.1005554199219 413.199951171875Q377.00067138671875 433.99993896484375 381.7007751464844 456.5999450683594Q386.40087890625 479.199951171875 389.60089111328125 498Z" fill="#F5EFE2"/><path transform="translate(607.55,142.20) scale(0.09200,-0.09200)" d="M39.1998291015625 708Q61.7999267578125 707 98.50009155273438 706.0Q135.20025634765625 705 171.200439453125 705Q218.80047607421875 705 262.4005126953125 706.0Q306.00054931640625 707 324.2005615234375 707Q409.40081787109375 707 465.5009765625 684.800048828125Q521.6011352539062 662.60009765625 549.4012145996094 623.3001098632812Q577.2012939453125 584.0001220703125 577.2012939453125 533Q577.2012939453125 501.59991455078125 564.6012573242188 467.39990234375Q552.001220703125 433.19989013671875 521.2011413574219 403.4999084472656Q490.40106201171875 373.7999267578125 437.1009216308594 354.89996337890625Q383.80078125 336 302.2005615234375 336H206.2005615234375V356H292.2005615234375Q359.2003173828125 356 394.50018310546875 378.5Q429.800048828125 401 442.5 438.5Q455.199951171875 476 455.199951171875 522Q455.199951171875 601 420.900146484375 644.5Q386.600341796875 688 303.2008056640625 688Q259.6009521484375 688 246.4010009765625 671.0Q233.2010498046875 654 233.2010498046875 602V106Q233.2010498046875 70 239.10104370117188 52.0Q245.00103759765625 34 262.0010070800781 28.0Q279.0009765625 22 312.200927734375 20V0Q288.0008544921875 2 251.30072021484375 2.5Q214.6005859375 3 177.200439453125 3Q135.20025634765625 3 98.50009155273438 2.5Q61.7999267578125 2 39.1998291015625 0V20Q72.59979248046875 22 89.59976196289062 28.0Q106.5997314453125 34 112.39971923828125 52.0Q118.19970703125 70 118.19970703125 106V602Q118.19970703125 639 112.39971923828125 656.5Q106.5997314453125 674 89.499755859375 680.5Q72.3997802734375 687 39.1998291015625 688ZM208.200439453125 353Q258.6002197265625 351.20001220703125 289.80023193359375 348.6000061035156Q321.000244140625 346 342.0003356933594 343.8999938964844Q363.00042724609375 341.79998779296875 381.200439453125 339.20001220703125Q456.200927734375 329.40008544921875 490.501220703125 299.4000549316406Q524.801513671875 269.4000244140625 538.4014892578125 207.4000244140625L562.6014404296875 105Q572.201416015625 62.40008544921875 582.6014099121094 44.000152587890625Q593.0014038085938 25.6002197265625 614.0013427734375 26.40020751953125Q629.6012573242188 27.2001953125 640.2012023925781 35.80010986328125Q650.8011474609375 44.4000244140625 662.60107421875 59.39990234375L677.2010498046875 47.9998779296875Q654.200927734375 16.9998779296875 628.9007568359375 1.49993896484375Q603.6005859375 -14 561.6005249023438 -14Q519.0001831054688 -14 488.60003662109375 8.300018310546875Q458.19989013671875 30.60003662109375 445.199951171875 94L424.60003662109375 194Q416.2000732421875 236.5999755859375 405.2001037597656 268.1999816894531Q394.20013427734375 299.79998779296875 374.8002014160156 317.8999938964844Q355.4002685546875 336 318.200439453125 336H210.200439453125Z" fill="#F5EFE2"/><path transform="translate(688.54,142.20) scale(0.09200,-0.09200)" d="M338.00091552734375 711.9999389648438 581.6008911132812 84Q596.40087890625 46.800048828125 614.8008422851562 33.9000244140625Q633.2008056640625 21 648.6007690429688 20V0Q625.4005737304688 2 592.600341796875 2.5Q559.8001098632812 3 526.599853515625 3Q485.19970703125 3 448.99957275390625 2.5Q412.7994384765625 2 390.599365234375 0V20Q441.599365234375 22 455.4993591308594 37.5Q469.39935302734375 53 449.39935302734375 104L268.59967041015625 590.1993408203125L285.39971923828125 607.599609375L118.60015869140625 174.20074462890625Q100.800048828125 129.200439453125 97.30001831054688 99.30029296875Q93.79998779296875 69.400146484375 102.60000610351562 52.40008544921875Q111.4000244140625 35.4000244140625 132.20004272460938 28.20001220703125Q153.00006103515625 21 183.800048828125 20V0Q153.99993896484375 2 123.699951171875 2.5Q93.39996337890625 3 65.599853515625 3Q41.7999267578125 3 23.4998779296875 2.5Q5.1998291015625 2 -9.8001708984375 0V20Q10.79986572265625 24.79998779296875 32.099884033203125 44.7000732421875Q53.39990234375 64.60015869140625 71.79998779296875 113.0003662109375L304.1998291015625 711.9999389648438Q312.2000732421875 711.5999145507812 321.1003723144531 711.5999145507812Q330.00067138671875 711.5999145507812 338.00091552734375 711.9999389648438ZM442.599853515625 288V268H144.599853515625L154.599853515625 288Z" fill="#F5EFE2"/></svg>